<svg xmlns="http://www.w3.org/2000/svg" viewBox="0 0 533.14 263.64"><g id="Layer_2" data-name="Layer 2"><g id="Layer_1-2" data-name="Layer 1"><path d="M522,177.27V118.65c0-28.92-27.46-37.37-44.6-37.11A58,58,0,0,0,443.11,93.9l12.05,17.44,5.19-3.35c.22-5.89,2.62-9,4.48-10.42,16-11.82,29.18,2.28,29.18,2.28a22.14,22.14,0,0,1,5.52,14c0,.31,0,11.35,0,11.35a55.78,55.78,0,0,0-25.63-4.47c-6.44.36-20.14,3.19-30.84,11.87-8.13,6.59-11.42,15.25-11.42,26.54A34.56,34.56,0,0,0,465,193.71c.42,0,.83,0,1.25,0s.83,0,1.24,0h65.69v-4c-4.21-.14-11.12-5.63-11.12-12.44m-46.85,2.07c-9.33,0-19.85-9.36-19.85-20.75s8-21.84,21.57-21.84c15.09,0,22.56,8,22.56,13.71,0,0,0,12,0,14.1,0,7.37-6.81,14.78-24.3,14.78"/><path d="M416.63,175.82V0L377.08,11.92v4.77A13.21,13.21,0,0,1,387,29.54h0l.8,126.09.21-.28.09,20.8c0,4.91-3.86,10.19-8.83,11.81l0,5.66,47,.15,0-5.84c-5.57-1.56-9.65-6.83-9.65-12.12"/><path d="M369.15,86.76l0-5.56H336.71v82c0,3.13-2.55,13-15.79,13-14.17,0-21.37-12.2-21.37-20.66l.35-56.4a13.3,13.3,0,0,1,9.47-12.49l0-5.48H276.71v77.85a34.58,34.58,0,0,0,33.68,34.57h1.79l56.84.07,0-5.77c-6.34-1.71-9.61-7.81-9.61-11.66,0-4.79.54-76.92.54-76.92a13.23,13.23,0,0,1,9.23-12.59"/><path d="M174.91,68.22v45.06l24-30.66V39.69l-32.82,9.92,0,5.54c5,2.15,8.81,6.17,8.81,13.07"/><path d="M198.94,176.07V159l.13-.09V122.27l-24,31.25v.11l-.12.16s-.2,22-.2,22.29c0,4.81-3.68,9.95-8.58,11.71l0,5.64h41.63l0-5.51a12.89,12.89,0,0,1-8.8-11.85"/><path d="M259.36,175.22v-3.89h0v-54.9c0-19.6-15.1-35.18-34.58-35.18-7.85,0-18.79,3.31-25.89,11.67,0,0-14.92,18.84-24,31.38-13.44,18.63-36.28,50.41-83.62,50.41-16.64,0-39.53-4.08-54-27.52-12.62-20.38-12.6-45-11.5-54.1,3.79-31.64,22.81-61.34,58.41-61.34,29.52,0,44.82,22.45,45,22.66A21.38,21.38,0,0,1,133,67l4.14,3.28.57.45L163,45.93A91.15,91.15,0,0,0,.52,92.94,93.35,93.35,0,0,0,0,102.75c0,50.36,40.83,90.58,91.19,90.58,33.35,0,59.1-14.78,83.72-50.53,1.14-1.64,19.78-25.79,19.78-25.79s11.95-15.43,12.27-15.74a13,13,0,0,1,11-3.58c11.17,1.41,18.24,11.2,18.24,21.58v56.19a13.21,13.21,0,0,1-8.83,12.47l0,5.5H269l0-5.5a13.23,13.23,0,0,1-9.64-12.72"/><path d="M462.62,193.88l1.24,0h-2.49l1.25,0"/><path d="M.59,230.93A18.24,18.24,0,0,1,2.88,222a18,18,0,0,1,6.41-6.7,17.06,17.06,0,0,1,9.11-2.53,17.83,17.83,0,0,1,5.11.72,15.18,15.18,0,0,1,4,1.77,27.53,27.53,0,0,1,2.76,2.07A11.35,11.35,0,0,1,32,219.12l.52.7L28,224.1l-.66-.49a1.52,1.52,0,0,0,.26-.92c0-1.36-.84-2.75-2.53-4.19a10,10,0,0,0-6.68-2.16,10.64,10.64,0,0,0-8.51,4.14,15.83,15.83,0,0,0-3.44,10.45,15,15,0,0,0,3.42,9.87A10.85,10.85,0,0,0,18.66,245a21.59,21.59,0,0,0,3.62-.29,25.57,25.57,0,0,0,2.71-.59,9.49,9.49,0,0,0,2.22-1,16.08,16.08,0,0,0,1.66-1.1c.31-.25.82-.7,1.54-1.35l1.39-1.23,1.76,1.9a8.52,8.52,0,0,1-.57.83A19.73,19.73,0,0,1,31.23,244a20.07,20.07,0,0,1-2.93,2.38,17.29,17.29,0,0,1-4.19,1.87,17.79,17.79,0,0,1-5.45.84,16.65,16.65,0,0,1-9.12-2.71A19.54,19.54,0,0,1,3,239.48a17,17,0,0,1-2.36-8.55"/><path d="M57.46,245.21a3.2,3.2,0,0,0,.68,2,1.93,1.93,0,0,0,1.48.88v.84H49.83v-.84a1.87,1.87,0,0,0,1.46-.88,3.11,3.11,0,0,0,.66-1.9V232.16a6.81,6.81,0,0,0-1-3.43A3.06,3.06,0,0,0,48.2,227a4.56,4.56,0,0,0-2.84,1,9.56,9.56,0,0,0-2.23,2.4v14.77a3.28,3.28,0,0,0,.64,2,1.81,1.81,0,0,0,1.43.88v.84H35.42v-.84a1.79,1.79,0,0,0,1.43-.91,3.35,3.35,0,0,0,.64-2V218.89a3.26,3.26,0,0,0-.64-2,1.82,1.82,0,0,0-1.43-.86v-.84L43.13,213v12.34a7.16,7.16,0,0,1,5.07-2.56,9.64,9.64,0,0,1,6.39,2.43,8.62,8.62,0,0,1,2.87,7Z"/><path d="M83.16,222.69v.83a1.78,1.78,0,0,0-1.43.91,3.28,3.28,0,0,0-.64,2v18.82a3.36,3.36,0,0,0,.64,2,1.77,1.77,0,0,0,1.43.9v.8H70.6a11,11,0,0,1-3.18-.47A10.41,10.41,0,0,1,64.49,247a6.57,6.57,0,0,1-2.23-2.71,9.41,9.41,0,0,1-.83-4.1V222.69h7.62v.83a1.8,1.8,0,0,0-1.43.89A3.1,3.1,0,0,0,67,226.3v13.93a5.41,5.41,0,0,0,.93,3,3,3,0,0,0,2.69,1.41q3.3,0,4.8-1.36V222.69Z"/><path d="M92.68,213V245.3a3.16,3.16,0,0,0,.64,2,1.79,1.79,0,0,0,1.43.86v.8H85v-.8a1.83,1.83,0,0,0,1.45-.88,3.16,3.16,0,0,0,.66-1.94V218.94a3.11,3.11,0,0,0-.66-2,1.83,1.83,0,0,0-1.45-.86v-.84Z"/><path d="M107.94,248.92a13.34,13.34,0,0,1-8.16-2.36,7.47,7.47,0,0,1-3.17-6.33,6.91,6.91,0,0,1,3.52-6,13.18,13.18,0,0,1,7.36-2.32,11.59,11.59,0,0,1,5.43,1.33v-1.64a8.24,8.24,0,0,0-.18-1.69,7.87,7.87,0,0,0-.64-1.83,3.65,3.65,0,0,0-1.45-1.57,4.57,4.57,0,0,0-2.36-.59,6.3,6.3,0,0,0-3.79.84,2.78,2.78,0,0,0-1.06,2.33l-1,.71-3.35-4.94a8.21,8.21,0,0,1,1-.75,16,16,0,0,1,3.09-1.19,17.13,17.13,0,0,1,5.14-.75q4.94,0,7.62,2.93c1.8,2,2.69,4.76,2.69,8.4v11.59a3.5,3.5,0,0,0,.66,2.08,1.85,1.85,0,0,0,1.46.92v.8Zm-5.47-8.51a4.77,4.77,0,0,0,1.34,3.06,5.47,5.47,0,0,0,4.35,1.57,12.67,12.67,0,0,0,4.76-.89v-6.92a8.59,8.59,0,0,0-4.59-1.36,5.8,5.8,0,0,0-4.36,1.54,4.43,4.43,0,0,0-1.5,3"/><path d="M130.33,213V245.3a3.16,3.16,0,0,0,.64,2,1.78,1.78,0,0,0,1.43.86v.8h-9.78v-.8a1.84,1.84,0,0,0,1.45-.88,3.16,3.16,0,0,0,.66-1.94V218.94a3.11,3.11,0,0,0-.66-2,1.84,1.84,0,0,0-1.45-.86v-.84Z"/><path d="M138.09,226.37a12.83,12.83,0,0,1,18.52,0,13.1,13.1,0,0,1,3.83,9.45,13.26,13.26,0,0,1-3.86,9.52,12.62,12.62,0,0,1-18.47,0,13.26,13.26,0,0,1-3.86-9.52,13.07,13.07,0,0,1,3.84-9.45m4.14,15.85a6.22,6.22,0,0,0,10.23,0,10.07,10.07,0,0,0,2.12-6.4,9.94,9.94,0,0,0-2.12-6.37,6.25,6.25,0,0,0-10.23,0,9.94,9.94,0,0,0-2.11,6.37,10.06,10.06,0,0,0,2.11,6.4"/><path d="M184.47,245.21a3.17,3.17,0,0,0,.7,2,2,2,0,0,0,1.5.9v.8h-9.92v-.8a1.84,1.84,0,0,0,1.46-.9,3.19,3.19,0,0,0,.66-1.92V231.06A5.63,5.63,0,0,0,178,228a3,3,0,0,0-2.69-1.39,5.72,5.72,0,0,0-2.76.7,6.41,6.41,0,0,0-2.14,1.86v16a3.26,3.26,0,0,0,.67,2,1.83,1.83,0,0,0,1.45.9v.8h-9.83v-.8a1.77,1.77,0,0,0,1.43-.92,3.41,3.41,0,0,0,.64-2v-17a3.26,3.26,0,0,0-.64-2,1.78,1.78,0,0,0-1.43-.89v-.79l7.71-2.34v1.9a6.85,6.85,0,0,1,4.9-1.76,11,11,0,0,1,3.17.46,10.55,10.55,0,0,1,2.93,1.41,6.64,6.64,0,0,1,2.23,2.71,9.44,9.44,0,0,1,.84,4.1Z"/><path d="M207.44,225a8.28,8.28,0,0,1,3.52,6.7,8.37,8.37,0,0,1-1,4.12,8.78,8.78,0,0,1-2.65,3,13.38,13.38,0,0,1-3.46,1.74,11.53,11.53,0,0,1-3.66.62q-6.16,0-6.17,1.72,0,2,8.68,2a21.17,21.17,0,0,1,2.41.15,19.21,19.21,0,0,1,3.08.69,13.35,13.35,0,0,1,3.15,1.36,7.24,7.24,0,0,1,2.36,2.43,6.69,6.69,0,0,1,1,3.61,8.62,8.62,0,0,1-1.31,4.68A10,10,0,0,1,210,261.1a16.83,16.83,0,0,1-4.52,1.9,19.19,19.19,0,0,1-4.91.64,17.16,17.16,0,0,1-9.06-2.38q-3.94-2.38-3.95-6.17a4,4,0,0,1,1.61-3.57,7.18,7.18,0,0,1,4.17-1.11,7.31,7.31,0,0,0-.66,3.75A6.83,6.83,0,0,0,195,259a8.79,8.79,0,0,0,6.5,2.31,8.57,8.57,0,0,0,6.37-2.27,6.39,6.39,0,0,0,2.27-4.38c0-1.3-.8-2.54-2.42-3.73s-4-1.78-7.1-1.78q-11.85,0-11.86-4.54a3.45,3.45,0,0,1,.69-2.12,3.85,3.85,0,0,1,1.67-1.34,15.14,15.14,0,0,1,2-.69,9.59,9.59,0,0,1,1.65-.31l.7,0a4.11,4.11,0,0,1-.66-.2,13,13,0,0,1-1.45-.75,8.89,8.89,0,0,1-1.88-1.41,7.54,7.54,0,0,1-1.47-2.31,8.12,8.12,0,0,1-.66-3.31,8.25,8.25,0,0,1,1.78-5.29,10.24,10.24,0,0,1,4.19-3.22,13.05,13.05,0,0,1,4.87-1,12.38,12.38,0,0,1,5.07,1.1,14.44,14.44,0,0,1,5.25-1,12.68,12.68,0,0,1,2.29.2,6.78,6.78,0,0,1,1.54.42l.44.17-2.11,4-.75-.48a1.77,1.77,0,0,0-.82-1.45,3.1,3.1,0,0,0-2-.62Zm-12.39,7.18a6.93,6.93,0,0,0,1.34,4.48,4.41,4.41,0,0,0,3.59,1.65,4.76,4.76,0,0,0,3.88-1.63,6.76,6.76,0,0,0,1.37-4.5q0-6.53-5.25-6.52a4.34,4.34,0,0,0-3.61,1.7,7.7,7.7,0,0,0-1.32,4.82"/><path d="M228.16,233.13a8.66,8.66,0,0,1,3.19,3.11,40.31,40.31,0,0,1,3,5,29.19,29.19,0,0,0,2.85,4.63c1,1.38,2,2.07,2.84,2.07v.93h-7.94c-.11-.27-.28-.64-.48-1.11s-.62-1.33-1.24-2.6-1.22-2.42-1.83-3.48a29.82,29.82,0,0,0-2.11-3.2,10.54,10.54,0,0,0-2.23-2.31v9a3.32,3.32,0,0,0,.66,2,1.84,1.84,0,0,0,1.46.9v.8h-9.79v-.8a1.77,1.77,0,0,0,1.43-.92,3.41,3.41,0,0,0,.64-2V218.89a3.2,3.2,0,0,0-.64-2,1.79,1.79,0,0,0-1.43-.86v-.79l7.67-2.29v17.5l4.59-7.8h8v.79a3.77,3.77,0,0,0-1.55.37,7.82,7.82,0,0,0-1.45.89,9,9,0,0,0-1.39,1.38c-.48.59-.89,1.11-1.21,1.57a20,20,0,0,0-1.08,1.7c-.4.67-.69,1.19-.86,1.54l-.69,1.34c-.27.55-.41.83-.41.86"/><path d="M241.65,226.37a12.82,12.82,0,0,1,18.51,0,13.07,13.07,0,0,1,3.84,9.45,13.26,13.26,0,0,1-3.86,9.52,12.62,12.62,0,0,1-18.47,0,13.26,13.26,0,0,1-3.86-9.52,13.07,13.07,0,0,1,3.84-9.45m4.14,15.85a6.22,6.22,0,0,0,10.23,0,10.06,10.06,0,0,0,2.11-6.4,9.94,9.94,0,0,0-2.11-6.37,6.25,6.25,0,0,0-10.23,0,9.94,9.94,0,0,0-2.12,6.37,10.07,10.07,0,0,0,2.12,6.4"/><path d="M278.59,222.33a13.16,13.16,0,0,1,2.73.27,7.64,7.64,0,0,1,1.81.53l.57.26-2.51,6-.88-.66a2.94,2.94,0,0,0-1-2.23,3.33,3.33,0,0,0-2.34-.9,4.94,4.94,0,0,0-3.48,1.45v18.16a3.32,3.32,0,0,0,.66,2,1.84,1.84,0,0,0,1.45.9v.8H265.8v-.8a1.8,1.8,0,0,0,1.44-.92,3.49,3.49,0,0,0,.64-2v-17a3.27,3.27,0,0,0-.64-2,1.82,1.82,0,0,0-1.44-.86v-.79l7.72-2.34v1.46a9.89,9.89,0,0,1,5.07-1.37"/><path d="M307.29,245.21a3.17,3.17,0,0,0,.7,2,2,2,0,0,0,1.5.9v.8h-9.92v-.8a1.84,1.84,0,0,0,1.46-.9,3.19,3.19,0,0,0,.66-1.92V231.06a5.55,5.55,0,0,0-.88-3.06,3,3,0,0,0-2.69-1.39,5.72,5.72,0,0,0-2.76.7,6.28,6.28,0,0,0-2.13,1.86v16a3.32,3.32,0,0,0,.66,2,1.83,1.83,0,0,0,1.45.9v.8h-9.83v-.8a1.77,1.77,0,0,0,1.43-.92,3.41,3.41,0,0,0,.64-2v-17a3.26,3.26,0,0,0-.64-2,1.78,1.78,0,0,0-1.43-.89v-.79l7.72-2.34v1.9a6.8,6.8,0,0,1,4.89-1.76,10.9,10.9,0,0,1,3.17.46,10.74,10.74,0,0,1,2.94,1.41,6.7,6.7,0,0,1,2.22,2.71,9.44,9.44,0,0,1,.84,4.1Z"/><path d="M351.36,213.82a1.87,1.87,0,0,0-1.43,1,3.24,3.24,0,0,0-.68,1.87v28.57a3.24,3.24,0,0,0,.66,2,1.85,1.85,0,0,0,1.45.88v.84h-7.71V245a14.71,14.71,0,0,1-10.32,4.18,10.62,10.62,0,0,1-3.94-.7,9,9,0,0,1-3-1.83,10.6,10.6,0,0,1-2-2.58A11.4,11.4,0,0,1,323,238.6v-22a3.27,3.27,0,0,0-.69-1.82,1.83,1.83,0,0,0-1.43-1V213h9.83v.83a1.85,1.85,0,0,0-1.43,1,3.17,3.17,0,0,0-.68,1.87v21.87a9.76,9.76,0,0,0,.11,1.57,7,7,0,0,0,.5,1.65,5,5,0,0,0,1,1.57,4.94,4.94,0,0,0,1.83,1.07,7.66,7.66,0,0,0,2.73.45q4.19,0,8.82-5.25V216.64a3.32,3.32,0,0,0-.68-1.82,1.86,1.86,0,0,0-1.44-1V213h9.83Z"/><path d="M375,245.21a3.13,3.13,0,0,0,.71,2,1.92,1.92,0,0,0,1.49.9v.8h-9.92v-.8a1.84,1.84,0,0,0,1.46-.9,3.19,3.19,0,0,0,.66-1.92V231.06a5.55,5.55,0,0,0-.88-3.06,3,3,0,0,0-2.69-1.39,5.72,5.72,0,0,0-2.76.7,6.28,6.28,0,0,0-2.13,1.86v16a3.32,3.32,0,0,0,.66,2,1.83,1.83,0,0,0,1.45.9v.8h-9.83v-.8a1.77,1.77,0,0,0,1.43-.92,3.41,3.41,0,0,0,.64-2v-17a3.26,3.26,0,0,0-.64-2,1.78,1.78,0,0,0-1.43-.89v-.79l7.72-2.34v1.9a6.8,6.8,0,0,1,4.89-1.76,10.85,10.85,0,0,1,3.17.46,10.74,10.74,0,0,1,2.94,1.41,6.7,6.7,0,0,1,2.22,2.71,9.44,9.44,0,0,1,.84,4.1Z"/><path d="M386.68,245.21a3.24,3.24,0,0,0,.66,2,1.83,1.83,0,0,0,1.45.88v.84H379v-.84a1.76,1.76,0,0,0,1.43-.91,3.28,3.28,0,0,0,.64-2V228.33a3.16,3.16,0,0,0-.64-2,1.77,1.77,0,0,0-1.43-.86v-.8l7.72-2.33ZM381.89,219a2.72,2.72,0,0,1,0-4,2.82,2.82,0,0,1,2-.83,2.66,2.66,0,0,1,2,.83,2.81,2.81,0,0,1,0,4,2.63,2.63,0,0,1-2,.84,2.79,2.79,0,0,1-2-.84"/><path d="M392.45,225.33a2.32,2.32,0,0,0-1.06-1.23,2.92,2.92,0,0,0-1.58-.53v-.89H399v.89a1.25,1.25,0,0,0-.93.35,1.15,1.15,0,0,0-.35.84q0,1,4.1,14.85,4.1-13.83,4.1-14.85c0-.8-.41-1.19-1.23-1.19v-.89h9.21v.89a3,3,0,0,0-1.61.53,2.32,2.32,0,0,0-1.08,1.23q0,.13-1.76,6.19t-3.31,11.69c-1.06,3.74-1.6,5.65-1.63,5.71h-5.38c0-.06-.57-2-1.63-5.71s-2.16-7.65-3.31-11.69-1.73-6.1-1.76-6.19"/><path d="M426.7,245.43a12.28,12.28,0,0,0,4.39-.81,14.82,14.82,0,0,0,3.26-1.63c.75-.55,1.6-1.23,2.54-2.05l1.81,1.63a8.33,8.33,0,0,1-.45.73,16.49,16.49,0,0,1-1.38,1.63,14.29,14.29,0,0,1-2.36,2,14.62,14.62,0,0,1-3.42,1.61,13.91,13.91,0,0,1-4.47.72,12.85,12.85,0,0,1-9.64-3.94,13.77,13.77,0,0,1,0-19.05,12.49,12.49,0,0,1,9.43-4,13.36,13.36,0,0,1,4,.57,10.34,10.34,0,0,1,3.09,1.5,14.63,14.63,0,0,1,2.24,2,10.57,10.57,0,0,1,1.57,2.25c.38.75.7,1.43,1,2.05a10.33,10.33,0,0,1,.53,1.5l.13.57a62.68,62.68,0,0,0-19.4,7.27,9.48,9.48,0,0,0,2.82,3.88,6.68,6.68,0,0,0,4.32,1.5m-.26-18.64a6.92,6.92,0,0,0-5.53,2.57,9.64,9.64,0,0,0-2.18,6.46v.27a44.26,44.26,0,0,1,6.76-3.2,43.48,43.48,0,0,1,7.08-2.14A5.53,5.53,0,0,0,430.5,228a6.54,6.54,0,0,0-4.06-1.19"/><path d="M454,222.33a13.16,13.16,0,0,1,2.73.27,7.64,7.64,0,0,1,1.81.53l.57.26-2.51,6-.88-.66a2.94,2.94,0,0,0-1-2.23,3.33,3.33,0,0,0-2.34-.9,4.94,4.94,0,0,0-3.48,1.45v18.16a3.32,3.32,0,0,0,.66,2,1.84,1.84,0,0,0,1.45.9v.8h-9.83v-.8a1.8,1.8,0,0,0,1.44-.92,3.49,3.49,0,0,0,.64-2v-17a3.27,3.27,0,0,0-.64-2,1.82,1.82,0,0,0-1.44-.86v-.79l7.72-2.34v1.46a9.89,9.89,0,0,1,5.07-1.37"/><path d="M469.69,222.47a12.21,12.21,0,0,1,4.05.68,13.19,13.19,0,0,1,3,1.34l.92.71L475.11,230l-1.14-.53a2.56,2.56,0,0,1-.05-.62,2,2,0,0,0-1.06-1.61,5.19,5.19,0,0,0-2.95-.72c-2.62,0-3.92,1.11-3.92,3.35a1.74,1.74,0,0,0,.7,1.41,5.39,5.39,0,0,0,1.81.92c.73.24,1.55.47,2.45.71a18.28,18.28,0,0,1,2.71.95,11.07,11.07,0,0,1,2.46,1.45,6.35,6.35,0,0,1,1.81,2.4,8.66,8.66,0,0,1,.71,3.62,6.12,6.12,0,0,1-.8,3.08,7.14,7.14,0,0,1-1.94,2.28,12.64,12.64,0,0,1-2.51,1.45,13.12,13.12,0,0,1-2.47.84,8.92,8.92,0,0,1-1.85.24,19.11,19.11,0,0,1-5.2-.66,9.74,9.74,0,0,1-3.22-1.37l-.92-.66,2.51-5.24.79.35a14.18,14.18,0,0,1,.22,1.76c0,.27.21.55.62.86a6,6,0,0,0,1.9.84,9.77,9.77,0,0,0,2.77.37,5.06,5.06,0,0,0,3.51-1.06,3.13,3.13,0,0,0,1.17-2.38,2.93,2.93,0,0,0-1.26-2.44,10.71,10.71,0,0,0-3-1.55c-1.19-.39-2.38-.85-3.57-1.36a7.39,7.39,0,0,1-3.05-2.51,7.47,7.47,0,0,1-1.25-4.44,6.17,6.17,0,0,1,2.78-5.17,9.68,9.68,0,0,1,5.86-2.05"/><path d="M488.16,245.21a3.24,3.24,0,0,0,.66,2,1.84,1.84,0,0,0,1.46.88v.84h-9.83v-.84a1.77,1.77,0,0,0,1.43-.91,3.35,3.35,0,0,0,.64-2V228.33a3.22,3.22,0,0,0-.64-2,1.78,1.78,0,0,0-1.43-.86v-.8l7.71-2.33ZM483.38,219a2.72,2.72,0,0,1,0-4,2.8,2.8,0,0,1,2-.83,2.68,2.68,0,0,1,2,.83,2.84,2.84,0,0,1,0,4,2.65,2.65,0,0,1-2,.84,2.77,2.77,0,0,1-2-.84"/><path d="M490.76,226.83l1.59-4.15a4.32,4.32,0,0,0,2.53-.77,5,5,0,0,0,1.7-1.87,16.06,16.06,0,0,0,.95-2.2,9.36,9.36,0,0,0,.46-1.9l.09-.75H501v7.49h5.69l-1.28,4.15H501v14.5q0,4.36,5.42,4.37v3.22h-3.87a7.05,7.05,0,0,1-5.07-2,6.73,6.73,0,0,1-2.12-5.05v-15Z"/><path d="M520.52,239.44q4.1-13.84,4.1-14.73a1.1,1.1,0,0,0-.33-.81,1.22,1.22,0,0,0-.91-.33v-.88h9.22v.88a3,3,0,0,0-1.59.53,2.32,2.32,0,0,0-1.06,1.23q0,.09-2.11,7.54t-4.28,14.94q-2.16,7.5-2.56,8.65a8.15,8.15,0,0,1-1.61,2.71,9.36,9.36,0,0,1-2.22,1.87,20.22,20.22,0,0,1-2.23,1.12,9,9,0,0,1-1.78.6l-.67.18v-1.86a6.54,6.54,0,0,0,.58-.39,8.2,8.2,0,0,0,1.12-1.24,6.89,6.89,0,0,0,1.17-2.07q.79-2.34,2.51-8.46s-2.27-7.89-6.74-23.59a2.32,2.32,0,0,0-1-1.23,2.81,2.81,0,0,0-1.56-.53v-.88h9.17v.88a1.22,1.22,0,0,0-.91.33,1.1,1.1,0,0,0-.33.81,41.28,41.28,0,0,0,1,4c.67,2.45,1.35,4.85,2,7.21Z"/></g></g></svg>